solid Untitled-54eb6fb5
facet normal 0.0 0.0 -1.0
  outer loop
    vertex -3.1369278828322793 3.2101276003871395 0.0
    vertex 0.22999999999999998 -0.24000000000000002 0.0
    vertex -3.1369278828322815 -0.24000000000000002 0.0
  endloop
endfacet
facet normal 0.0 0.0 -1.0
  outer loop
    vertex 0.22999999999999998 -0.24000000000000002 0.0
    vertex -3.1369278828322793 3.2101276003871395 0.0
    vertex -2.7769278828322848 3.2101276003871395 0.0
  endloop
endfacet
facet normal 0.0 0.0 -1.0
  outer loop
    vertex 0.22999999999999998 -0.24000000000000002 0.0
    vertex -2.7769278828322848 3.2101276003871395 0.0
    vertex 0.22999999999999998 3.2101276003871395 0.0
  endloop
endfacet
facet normal 0.0 0.0 -1.0
  outer loop
    vertex 0.22999999999999998 -0.24000000000000002 0.0
    vertex 0.22999999999999998 3.2101276003871395 0.0
    vertex 0.22999999999999998 1.7188799339402454 0.0
  endloop
endfacet
facet normal 0.0 0.0 -1.0
  outer loop
    vertex 0.22999999999999998 -0.24000000000000002 0.0
    vertex 0.22999999999999998 1.7188799339402454 0.0
    vertex 0.22999999999999998 1.1788799339402454 0.0
  endloop
endfacet
facet normal -0.0 -1.0 -0.0
  outer loop
    vertex 0.22999999999999998 -0.24000000000000002 1.76
    vertex -3.1369278828322815 -0.24000000000000002 0.0
    vertex 0.22999999999999998 -0.24000000000000002 0.0
  endloop
endfacet
facet normal -0.0 -1.0 -0.0
  outer loop
    vertex -3.1369278828322815 -0.24000000000000002 0.0
    vertex 0.22999999999999998 -0.24000000000000002 1.76
    vertex -3.1369278828322815 -0.24000000000000002 1.76
  endloop
endfacet
facet normal 0.0 -1.0 0.0
  outer loop
    vertex -0.08355441438718157 3.1265731859999577 0.4347517150326325
    vertex -2.693373468445103 3.1265731859999577 0.1200000000000025
    vertex -0.08355441438718175 3.1265731859999577 0.1200000000000025
  endloop
endfacet
facet normal 0.0 -1.0 0.0
  outer loop
    vertex -2.693373468445103 3.1265731859999577 0.1200000000000025
    vertex -0.08355441438718157 3.1265731859999577 0.4347517150326325
    vertex -2.693373468445103 3.1265731859999577 1.76
  endloop
endfacet
facet normal 0.0 -1.0 0.0
  outer loop
    vertex -2.693373468445103 3.1265731859999577 1.76
    vertex -0.08355441438718157 3.1265731859999577 0.4347517150326325
    vertex -0.08355441438718157 3.1265731859999577 1.0899142568333597
  endloop
endfacet
facet normal 0.0 -1.0 0.0
  outer loop
    vertex -2.693373468445103 3.1265731859999577 1.76
    vertex -0.08355441438718157 3.1265731859999577 1.0899142568333597
    vertex -0.08355441438718175 3.1265731859999577 1.76
  endloop
endfacet
facet normal 1.0 -0.0 -0.0
  outer loop
    vertex 0.0 1.6859010282984428 0.03297890564180115
    vertex 0.0 1.2118588395820444 0.39499999999999996
    vertex 0.0 1.2118588395820444 0.03297890564180115
  endloop
endfacet
facet normal 1.0 -0.0 -0.0
  outer loop
    vertex 0.0 1.2118588395820444 0.39499999999999996
    vertex 0.0 1.6859010282984428 0.03297890564180115
    vertex 0.0 1.21962341093512 0.3960222252113279
  endloop
endfacet
facet normal 1.0 -0.0 -0.0
  outer loop
    vertex 0.0 1.21962341093512 0.3960222252113279
    vertex 0.0 1.6859010282984428 0.03297890564180115
    vertex 0.0 1.2268588395820443 0.3990192378864668
  endloop
endfacet
facet normal 1.0 -0.0 -0.0
  outer loop
    vertex 0.0 1.2268588395820443 0.3990192378864668
    vertex 0.0 1.6859010282984428 0.03297890564180115
    vertex 0.0 1.2330720430176407 0.4037867965644036
  endloop
endfacet
facet normal 1.0 -0.0 -0.0
  outer loop
    vertex 0.0 1.2330720430176407 0.4037867965644036
    vertex 0.0 1.6859010282984428 0.03297890564180115
    vertex 0.0 1.2378396016955777 0.41
  endloop
endfacet
facet normal 1.0 -0.0 -0.0
  outer loop
    vertex 0.0 1.2378396016955777 0.41
    vertex 0.0 1.6859010282984428 0.03297890564180115
    vertex 0.0 1.2408366143707166 0.4172354286469243
  endloop
endfacet
facet normal 1.0 -0.0 -0.0
  outer loop
    vertex 0.0 1.2408366143707166 0.4172354286469243
    vertex 0.0 1.6859010282984428 0.03297890564180115
    vertex 0.0 1.2418588395820445 0.425
  endloop
endfacet
facet normal 1.0 -0.0 -0.0
  outer loop
    vertex 0.0 1.21962341093512 0.453977774788672
    vertex 0.0 1.2118588395820444 0.8170210943581988
    vertex 0.0 1.2118588395820444 0.455
  endloop
endfacet
facet normal 1.0 -0.0 -0.0
  outer loop
    vertex 0.0 1.2118588395820444 0.8170210943581988
    vertex 0.0 1.21962341093512 0.453977774788672
    vertex 0.0 1.6859010282984428 0.8170210943581988
  endloop
endfacet
facet normal 1.0 -0.0 -0.0
  outer loop
    vertex 0.0 1.6859010282984428 0.8170210943581988
    vertex 0.0 1.21962341093512 0.453977774788672
    vertex 0.0 1.2268588395820443 0.45098076211353316
  endloop
endfacet
facet normal 1.0 -0.0 -0.0
  outer loop
    vertex 0.0 1.6859010282984428 0.8170210943581988
    vertex 0.0 1.2268588395820443 0.45098076211353316
    vertex 0.0 1.2330720430176407 0.44621320343559645
  endloop
endfacet
facet normal 1.0 -0.0 -0.0
  outer loop
    vertex 0.0 1.6859010282984428 0.8170210943581988
    vertex 0.0 1.2330720430176407 0.44621320343559645
    vertex 0.0 1.2378396016955775 0.44
  endloop
endfacet
facet normal 1.0 -0.0 -0.0
  outer loop
    vertex 0.0 1.6859010282984428 0.8170210943581988
    vertex 0.0 1.2378396016955775 0.44
    vertex 0.0 1.2408366143707166 0.43276457135307567
  endloop
endfacet
facet normal 1.0 -0.0 -0.0
  outer loop
    vertex 0.0 1.6859010282984428 0.8170210943581988
    vertex 0.0 1.2408366143707166 0.43276457135307567
    vertex 0.0 1.2418588395820445 0.425
  endloop
endfacet
facet normal 1.0 -0.0 -0.0
  outer loop
    vertex 0.0 1.6859010282984428 0.8170210943581988
    vertex 0.0 1.2418588395820445 0.425
    vertex 0.0 1.6859010282984428 0.03297890564180115
  endloop
endfacet
facet normal 1.0 -0.0 -0.0
  outer loop
    vertex 0.22999999999999998 -0.24000000000000002 0.0
    vertex 0.22999999999999968 0.20195119882818735 0.4347517150326326
    vertex 0.22999999999999998 -0.24000000000000002 1.76
  endloop
endfacet
facet normal 1.0 -0.0 -0.0
  outer loop
    vertex 0.22999999999999968 0.20195119882818735 0.4347517150326326
    vertex 0.22999999999999998 -0.24000000000000002 0.0
    vertex 0.22999999999999998 1.1788799339402454 0.0
  endloop
endfacet
facet normal 1.0 -0.0 -0.0
  outer loop
    vertex 0.22999999999999968 0.20195119882818735 0.4347517150326326
    vertex 0.22999999999999998 1.1788799339402454 0.0
    vertex 0.22999999999999968 0.8619511988281873 0.4347517150326326
  endloop
endfacet
facet normal 1.0 -0.0 -0.0
  outer loop
    vertex 0.22999999999999968 0.8619511988281873 0.4347517150326326
    vertex 0.22999999999999998 1.1788799339402454 0.0
    vertex 0.22999999999999968 0.8619511988281873 1.0947517150326325
  endloop
endfacet
facet normal 1.0 -0.0 -0.0
  outer loop
    vertex 0.22999999999999998 3.2101276003871395 0.0
    vertex 0.22999999999999998 1.7188799339402454 0.03297890564180115
    vertex 0.22999999999999998 1.7188799339402454 0.0
  endloop
endfacet
facet normal 1.0 -0.0 -0.0
  outer loop
    vertex 0.22999999999999998 1.7188799339402454 0.03297890564180115
    vertex 0.22999999999999998 3.2101276003871395 0.0
    vertex 0.22999999999999968 2.0789708381667698 0.4347517150326326
  endloop
endfacet
facet normal 1.0 -0.0 -0.0
  outer loop
    vertex 0.22999999999999998 1.7188799339402454 0.03297890564180115
    vertex 0.22999999999999968 2.0789708381667698 0.4347517150326326
    vertex 0.22999999999999998 1.7188799339402454 0.85
  endloop
endfacet
facet normal 1.0 -0.0 -0.0
  outer loop
    vertex 0.22999999999999968 2.0789708381667698 0.4347517150326326
    vertex 0.22999999999999998 3.2101276003871395 0.0
    vertex 0.22999999999999968 3.02563816682394 0.4347517150326326
  endloop
endfacet
facet normal 1.0 -0.0 -0.0
  outer loop
    vertex 0.22999999999999968 3.02563816682394 0.4347517150326326
    vertex 0.22999999999999998 3.2101276003871395 0.0
    vertex 0.22999999999999968 3.02563816682394 1.0899142568333597
  endloop
endfacet
facet normal 1.0 -0.0 -0.0
  outer loop
    vertex 0.22999999999999998 -0.24000000000000002 1.76
    vertex 0.22999999999999968 0.20195119882818735 1.0947517150326325
    vertex 0.22999999999999998 3.500127600387137 1.76
  endloop
endfacet
facet normal 1.0 -0.0 -0.0
  outer loop
    vertex 0.22999999999999968 0.20195119882818735 1.0947517150326325
    vertex 0.22999999999999998 -0.24000000000000002 1.76
    vertex 0.22999999999999968 0.20195119882818735 0.4347517150326326
  endloop
endfacet
facet normal 1.0 -0.0 -0.0
  outer loop
    vertex 0.22999999999999998 3.500127600387137 1.76
    vertex 0.22999999999999968 0.20195119882818735 1.0947517150326325
    vertex 0.22999999999999968 0.8619511988281873 1.0947517150326325
  endloop
endfacet
facet normal 1.0 -0.0 -0.0
  outer loop
    vertex 0.22999999999999998 3.500127600387137 1.76
    vertex 0.22999999999999968 0.8619511988281873 1.0947517150326325
    vertex 0.22999999999999998 1.1788799339402454 0.85
  endloop
endfacet
facet normal 1.0 -0.0 -0.0
  outer loop
    vertex 0.22999999999999998 1.1788799339402454 0.85
    vertex 0.22999999999999968 0.8619511988281873 1.0947517150326325
    vertex 0.22999999999999998 1.1788799339402454 0.0
  endloop
endfacet
facet normal 1.0 -0.0 -0.0
  outer loop
    vertex 0.22999999999999998 1.1788799339402454 0.85
    vertex 0.22999999999999998 1.1788799339402454 0.0
    vertex 0.22999999999999998 1.1788799339402454 0.03297890564180115
  endloop
endfacet
facet normal 1.0 -0.0 -0.0
  outer loop
    vertex 0.22999999999999998 3.500127600387137 1.76
    vertex 0.22999999999999998 1.1788799339402454 0.85
    vertex 0.22999999999999968 2.0789708381667698 1.0899142568333597
  endloop
endfacet
facet normal 1.0 -0.0 -0.0
  outer loop
    vertex 0.22999999999999968 2.0789708381667698 1.0899142568333597
    vertex 0.22999999999999998 1.1788799339402454 0.85
    vertex 0.22999999999999998 1.7188799339402454 0.85
  endloop
endfacet
facet normal 1.0 -0.0 -0.0
  outer loop
    vertex 0.22999999999999968 2.0789708381667698 1.0899142568333597
    vertex 0.22999999999999998 1.7188799339402454 0.85
    vertex 0.22999999999999968 2.0789708381667698 0.4347517150326326
  endloop
endfacet
facet normal 1.0 -0.0 -0.0
  outer loop
    vertex 0.22999999999999998 3.500127600387137 1.76
    vertex 0.22999999999999968 2.0789708381667698 1.0899142568333597
    vertex 0.22999999999999968 3.02563816682394 1.0899142568333597
  endloop
endfacet
facet normal 1.0 -0.0 -0.0
  outer loop
    vertex 0.22999999999999998 3.500127600387137 1.76
    vertex 0.22999999999999968 3.02563816682394 1.0899142568333597
    vertex 0.22999999999999998 3.2101276003871395 0.0
  endloop
endfacet
facet normal 1.0 -0.0 -0.0
  outer loop
    vertex 0.22999999999999998 3.500127600387137 1.76
    vertex 0.22999999999999998 3.2101276003871395 0.0
    vertex 0.22999999999999998 3.500127600387137 0.0
  endloop
endfacet
facet normal -0.0 1.0 -0.0
  outer loop
    vertex 0.02 1.1788799339402454 0.85
    vertex 0.22999999999999998 1.1788799339402454 0.03297890564180115
    vertex 0.02 1.1788799339402454 0.03297890564180115
  endloop
endfacet
facet normal -0.0 1.0 -0.0
  outer loop
    vertex 0.22999999999999998 1.1788799339402454 0.03297890564180115
    vertex 0.02 1.1788799339402454 0.85
    vertex 0.22999999999999998 1.1788799339402454 0.85
  endloop
endfacet
facet normal 0.0 0.0 -1.0
  outer loop
    vertex 0.22999999999999998 1.7188799339402454 0.85
    vertex 0.02 1.1788799339402454 0.85
    vertex 0.02 1.7188799339402454 0.85
  endloop
endfacet
facet normal 0.0 0.0 -1.0
  outer loop
    vertex 0.02 1.1788799339402454 0.85
    vertex 0.22999999999999998 1.7188799339402454 0.85
    vertex 0.22999999999999998 1.1788799339402454 0.85
  endloop
endfacet
facet normal 0.0 -1.0 0.0
  outer loop
    vertex 0.22999999999999998 1.7188799339402454 0.85
    vertex 0.02 1.7188799339402454 0.03297890564180115
    vertex 0.22999999999999998 1.7188799339402454 0.03297890564180115
  endloop
endfacet
facet normal 0.0 -1.0 0.0
  outer loop
    vertex 0.02 1.7188799339402454 0.03297890564180115
    vertex 0.22999999999999998 1.7188799339402454 0.85
    vertex 0.02 1.7188799339402454 0.85
  endloop
endfacet
facet normal -0.0 1.0 -0.0
  outer loop
    vertex -3.1369278828322793 3.500127600387137 1.76
    vertex -2.7769278828322848 3.500127600387137 0.0
    vertex -3.1369278828322793 3.500127600387137 0.0
  endloop
endfacet
facet normal -0.0 1.0 -0.0
  outer loop
    vertex -2.7769278828322848 3.500127600387137 0.0
    vertex -3.1369278828322793 3.500127600387137 1.76
    vertex 0.22999999999999998 3.500127600387137 0.0
  endloop
endfacet
facet normal -0.0 1.0 -0.0
  outer loop
    vertex 0.22999999999999998 3.500127600387137 0.0
    vertex -3.1369278828322793 3.500127600387137 1.76
    vertex 0.22999999999999998 3.500127600387137 1.76
  endloop
endfacet
facet normal 0.0 0.0 -1.0
  outer loop
    vertex 0.22999999999999998 3.500127600387137 0.0
    vertex -2.7769278828322848 3.2101276003871395 0.0
    vertex -2.7769278828322848 3.500127600387137 0.0
  endloop
endfacet
facet normal 0.0 0.0 -1.0
  outer loop
    vertex -2.7769278828322848 3.2101276003871395 0.0
    vertex 0.22999999999999998 3.500127600387137 0.0
    vertex 0.22999999999999998 3.2101276003871395 0.0
  endloop
endfacet
facet normal -0.0 -0.0 1.0
  outer loop
    vertex -3.1369278828322815 -0.24000000000000002 1.76
    vertex -2.693373468445103 0.08355441438718175 1.76
    vertex -3.1369278828322793 3.500127600387137 1.76
  endloop
endfacet
facet normal -0.0 -0.0 1.0
  outer loop
    vertex -2.693373468445103 0.08355441438718175 1.76
    vertex -3.1369278828322815 -0.24000000000000002 1.76
    vertex 0.22999999999999998 -0.24000000000000002 1.76
  endloop
endfacet
facet normal -0.0 -0.0 1.0
  outer loop
    vertex -2.693373468445103 0.08355441438718175 1.76
    vertex 0.22999999999999998 -0.24000000000000002 1.76
    vertex -0.08355441438718175 0.08355441438718175 1.76
  endloop
endfacet
facet normal -0.0 -0.0 1.0
  outer loop
    vertex -0.08355441438718175 0.08355441438718175 1.76
    vertex 0.22999999999999998 -0.24000000000000002 1.76
    vertex -0.08355441438718175 3.1265731859999577 1.76
  endloop
endfacet
facet normal -0.0 -0.0 1.0
  outer loop
    vertex -3.1369278828322793 3.500127600387137 1.76
    vertex -2.693373468445103 3.1265731859999577 1.76
    vertex 0.22999999999999998 3.500127600387137 1.76
  endloop
endfacet
facet normal -0.0 -0.0 1.0
  outer loop
    vertex -2.693373468445103 3.1265731859999577 1.76
    vertex -3.1369278828322793 3.500127600387137 1.76
    vertex -2.693373468445103 0.08355441438718175 1.76
  endloop
endfacet
facet normal -0.0 -0.0 1.0
  outer loop
    vertex 0.22999999999999998 3.500127600387137 1.76
    vertex -2.693373468445103 3.1265731859999577 1.76
    vertex -0.08355441438718175 3.1265731859999577 1.76
  endloop
endfacet
facet normal -0.0 -0.0 1.0
  outer loop
    vertex 0.22999999999999998 3.500127600387137 1.76
    vertex -0.08355441438718175 3.1265731859999577 1.76
    vertex 0.22999999999999998 -0.24000000000000002 1.76
  endloop
endfacet
facet normal 0.0 0.0 -1.0
  outer loop
    vertex -2.7769278828322848 3.500127600387137 0.0
    vertex -3.1369278828322793 3.2101276003871395 0.0
    vertex -3.1369278828322793 3.500127600387137 0.0
  endloop
endfacet
facet normal 0.0 0.0 -1.0
  outer loop
    vertex -3.1369278828322793 3.2101276003871395 0.0
    vertex -2.7769278828322848 3.500127600387137 0.0
    vertex -2.7769278828322848 3.2101276003871395 0.0
  endloop
endfacet
facet normal -1.0 6.993964143268799e-16 1.2733829218049484e-32
  outer loop
    vertex -3.1369278828322793 3.500127600387137 1.76
    vertex -3.1369278828322815 -0.24000000000000002 0.0
    vertex -3.1369278828322815 -0.24000000000000002 1.76
  endloop
endfacet
facet normal -1.0 6.993964143268799e-16 1.2733829218049484e-32
  outer loop
    vertex -3.1369278828322815 -0.24000000000000002 0.0
    vertex -3.1369278828322793 3.500127600387137 1.76
    vertex -3.1369278828322793 3.2101276003871395 0.0
  endloop
endfacet
facet normal -1.0 6.993964143268799e-16 1.2733829218049484e-32
  outer loop
    vertex -3.1369278828322793 3.2101276003871395 0.0
    vertex -3.1369278828322793 3.500127600387137 1.76
    vertex -3.1369278828322793 3.500127600387137 0.0
  endloop
endfacet
facet normal 1.0 -0.0 -0.0
  outer loop
    vertex 0.22999999999999998 1.7188799339402454 0.0
    vertex 0.22999999999999998 1.1788799339402454 0.03297890564180115
    vertex 0.22999999999999998 1.1788799339402454 0.0
  endloop
endfacet
facet normal 1.0 -0.0 -0.0
  outer loop
    vertex 0.22999999999999998 1.1788799339402454 0.03297890564180115
    vertex 0.22999999999999998 1.7188799339402454 0.0
    vertex 0.22999999999999998 1.2118588395820444 0.03297890564180115
  endloop
endfacet
facet normal 1.0 -0.0 -0.0
  outer loop
    vertex 0.22999999999999998 1.2118588395820444 0.03297890564180115
    vertex 0.22999999999999998 1.7188799339402454 0.0
    vertex 0.22999999999999998 1.6859010282984428 0.03297890564180115
  endloop
endfacet
facet normal 1.0 -0.0 -0.0
  outer loop
    vertex 0.22999999999999998 1.6859010282984428 0.03297890564180115
    vertex 0.22999999999999998 1.7188799339402454 0.0
    vertex 0.22999999999999998 1.7188799339402454 0.03297890564180115
  endloop
endfacet
facet normal -0.0 -0.0 1.0
  outer loop
    vertex 0.22999999999999998 1.6859010282984428 0.03297890564180115
    vertex 0.02 1.7188799339402454 0.03297890564180115
    vertex 0.02 1.6859010282984428 0.03297890564180115
  endloop
endfacet
facet normal -0.0 -0.0 1.0
  outer loop
    vertex 0.02 1.7188799339402454 0.03297890564180115
    vertex 0.22999999999999998 1.6859010282984428 0.03297890564180115
    vertex 0.22999999999999998 1.7188799339402454 0.03297890564180115
  endloop
endfacet
facet normal 0.0 0.0 1.0
  outer loop
    vertex 0.02 1.2118588395820444 0.03297890564180115
    vertex 0.0 1.6859010282984428 0.03297890564180115
    vertex 0.0 1.2118588395820444 0.03297890564180115
  endloop
endfacet
facet normal 0.0 0.0 1.0
  outer loop
    vertex 0.0 1.6859010282984428 0.03297890564180115
    vertex 0.02 1.2118588395820444 0.03297890564180115
    vertex 0.02 1.6859010282984428 0.03297890564180115
  endloop
endfacet
facet normal 0.0 0.0 1.0
  outer loop
    vertex 0.02 1.6859010282984428 0.03297890564180115
    vertex 0.02 1.2118588395820444 0.03297890564180115
    vertex 0.22999999999999998 1.2118588395820444 0.03297890564180115
  endloop
endfacet
facet normal 0.0 0.0 1.0
  outer loop
    vertex 0.02 1.6859010282984428 0.03297890564180115
    vertex 0.22999999999999998 1.2118588395820444 0.03297890564180115
    vertex 0.22999999999999998 1.6859010282984428 0.03297890564180115
  endloop
endfacet
facet normal -0.0 -0.0 1.0
  outer loop
    vertex 0.22999999999999998 1.1788799339402454 0.03297890564180115
    vertex 0.02 1.2118588395820444 0.03297890564180115
    vertex 0.02 1.1788799339402454 0.03297890564180115
  endloop
endfacet
facet normal -0.0 -0.0 1.0
  outer loop
    vertex 0.02 1.2118588395820444 0.03297890564180115
    vertex 0.22999999999999998 1.1788799339402454 0.03297890564180115
    vertex 0.22999999999999998 1.2118588395820444 0.03297890564180115
  endloop
endfacet
facet normal 1.0 -0.0 -0.0
  outer loop
    vertex 0.08 1.1828810647933723 0.4172354286469243
    vertex 0.08 1.1828810647933723 0.43276457135307567
    vertex 0.08 1.1818588395820444 0.425
  endloop
endfacet
facet normal 1.0 -0.0 -0.0
  outer loop
    vertex 0.08 1.1828810647933723 0.43276457135307567
    vertex 0.08 1.1828810647933723 0.4172354286469243
    vertex 0.08 1.1858780774685114 0.41
  endloop
endfacet
facet normal 1.0 -0.0 -0.0
  outer loop
    vertex 0.08 1.1828810647933723 0.43276457135307567
    vertex 0.08 1.1858780774685114 0.41
    vertex 0.08 1.1858780774685111 0.44
  endloop
endfacet
facet normal 1.0 -0.0 -0.0
  outer loop
    vertex 0.08 1.1858780774685111 0.44
    vertex 0.08 1.1858780774685114 0.41
    vertex 0.08 1.1906456361464481 0.44621320343559645
  endloop
endfacet
facet normal 1.0 -0.0 -0.0
  outer loop
    vertex 0.08 1.1906456361464481 0.44621320343559645
    vertex 0.08 1.1858780774685114 0.41
    vertex 0.08 1.1906456361464481 0.4037867965644036
  endloop
endfacet
facet normal 1.0 -0.0 -0.0
  outer loop
    vertex 0.08 1.1906456361464481 0.44621320343559645
    vertex 0.08 1.1906456361464481 0.4037867965644036
    vertex 0.08 1.1968588395820443 0.3990192378864668
  endloop
endfacet
facet normal 1.0 -0.0 -0.0
  outer loop
    vertex 0.08 1.1906456361464481 0.44621320343559645
    vertex 0.08 1.1968588395820443 0.3990192378864668
    vertex 0.08 1.1968588395820443 0.45098076211353316
  endloop
endfacet
facet normal 1.0 -0.0 -0.0
  outer loop
    vertex 0.08 1.1968588395820443 0.45098076211353316
    vertex 0.08 1.1968588395820443 0.3990192378864668
    vertex 0.08 1.2040942682289688 0.3960222252113279
  endloop
endfacet
facet normal 1.0 -0.0 -0.0
  outer loop
    vertex 0.08 1.1968588395820443 0.45098076211353316
    vertex 0.08 1.2040942682289688 0.3960222252113279
    vertex 0.08 1.2040942682289688 0.453977774788672
  endloop
endfacet
facet normal 1.0 -0.0 -0.0
  outer loop
    vertex 0.08 1.2040942682289688 0.453977774788672
    vertex 0.08 1.2040942682289688 0.3960222252113279
    vertex 0.08 1.2118588395820444 0.39499999999999996
  endloop
endfacet
facet normal 1.0 -0.0 -0.0
  outer loop
    vertex 0.08 1.2040942682289688 0.453977774788672
    vertex 0.08 1.2118588395820444 0.39499999999999996
    vertex 0.08 1.2118588395820444 0.455
  endloop
endfacet
facet normal 1.0 -0.0 -0.0
  outer loop
    vertex 0.08 1.2118588395820444 0.455
    vertex 0.08 1.2118588395820444 0.39499999999999996
    vertex 0.08 1.21962341093512 0.3960222252113279
  endloop
endfacet
facet normal 1.0 -0.0 -0.0
  outer loop
    vertex 0.08 1.2118588395820444 0.455
    vertex 0.08 1.21962341093512 0.3960222252113279
    vertex 0.08 1.21962341093512 0.453977774788672
  endloop
endfacet
facet normal 1.0 -0.0 -0.0
  outer loop
    vertex 0.08 1.21962341093512 0.453977774788672
    vertex 0.08 1.21962341093512 0.3960222252113279
    vertex 0.08 1.2268588395820443 0.3990192378864668
  endloop
endfacet
facet normal 1.0 -0.0 -0.0
  outer loop
    vertex 0.08 1.21962341093512 0.453977774788672
    vertex 0.08 1.2268588395820443 0.3990192378864668
    vertex 0.08 1.2268588395820443 0.45098076211353316
  endloop
endfacet
facet normal 1.0 -0.0 -0.0
  outer loop
    vertex 0.08 1.2268588395820443 0.45098076211353316
    vertex 0.08 1.2268588395820443 0.3990192378864668
    vertex 0.08 1.2330720430176407 0.4037867965644036
  endloop
endfacet
facet normal 1.0 -0.0 -0.0
  outer loop
    vertex 0.08 1.2268588395820443 0.45098076211353316
    vertex 0.08 1.2330720430176407 0.4037867965644036
    vertex 0.08 1.2330720430176407 0.44621320343559645
  endloop
endfacet
facet normal 1.0 -0.0 -0.0
  outer loop
    vertex 0.08 1.2330720430176407 0.44621320343559645
    vertex 0.08 1.2330720430176407 0.4037867965644036
    vertex 0.08 1.2378396016955777 0.41
  endloop
endfacet
facet normal 1.0 -0.0 -0.0
  outer loop
    vertex 0.08 1.2330720430176407 0.44621320343559645
    vertex 0.08 1.2378396016955777 0.41
    vertex 0.08 1.2378396016955775 0.44
  endloop
endfacet
facet normal 1.0 -0.0 -0.0
  outer loop
    vertex 0.08 1.2378396016955775 0.44
    vertex 0.08 1.2378396016955777 0.41
    vertex 0.08 1.2408366143707166 0.43276457135307567
  endloop
endfacet
facet normal 1.0 -0.0 -0.0
  outer loop
    vertex 0.08 1.2408366143707166 0.43276457135307567
    vertex 0.08 1.2378396016955777 0.41
    vertex 0.08 1.2408366143707166 0.4172354286469243
  endloop
endfacet
facet normal 1.0 -0.0 -0.0
  outer loop
    vertex 0.08 1.2408366143707166 0.43276457135307567
    vertex 0.08 1.2408366143707166 0.4172354286469243
    vertex 0.08 1.2418588395820445 0.425
  endloop
endfacet
facet normal 0.0 -0.4999999999999997 0.8660254037844387
  outer loop
    vertex 0.08 1.1968588395820443 0.45098076211353316
    vertex 0.02 1.2040942682289688 0.453977774788672
    vertex 0.02 1.1968588395820443 0.45098076211353316
  endloop
endfacet
facet normal 0.0 -0.2588190451025215 0.9659258262890681
  outer loop
    vertex 0.02 1.2040942682289688 0.453977774788672
    vertex 0.08 1.1968588395820443 0.45098076211353316
    vertex 0.08 1.2040942682289688 0.453977774788672
  endloop
endfacet
facet normal 0.0 -0.7071067811865436 0.7071067811865516
  outer loop
    vertex 0.08 1.1906456361464481 0.44621320343559645
    vertex 0.02 1.1968588395820443 0.45098076211353316
    vertex 0.02 1.1906456361464481 0.44621320343559645
  endloop
endfacet
facet normal 0.0 -0.4999999999999997 0.8660254037844387
  outer loop
    vertex 0.02 1.1968588395820443 0.45098076211353316
    vertex 0.08 1.1906456361464481 0.44621320343559645
    vertex 0.08 1.1968588395820443 0.45098076211353316
  endloop
endfacet
facet normal 0.0 -0.7071067811865436 0.7071067811865516
  outer loop
    vertex 0.08 1.1906456361464481 0.44621320343559645
    vertex 0.02 1.1858780774685111 0.44
    vertex 0.08 1.1858780774685111 0.44
  endloop
endfacet
facet normal 0.0 -0.8660254037844386 0.5
  outer loop
    vertex 0.02 1.1858780774685111 0.44
    vertex 0.08 1.1906456361464481 0.44621320343559645
    vertex 0.02 1.1906456361464481 0.44621320343559645
  endloop
endfacet
facet normal 0.0 -0.8660254037844386 0.5
  outer loop
    vertex 0.08 1.1858780774685111 0.44
    vertex 0.02 1.1828810647933723 0.43276457135307567
    vertex 0.08 1.1828810647933723 0.43276457135307567
  endloop
endfacet
facet normal 0.0 -0.9659258262890694 0.2588190451025164
  outer loop
    vertex 0.02 1.1828810647933723 0.43276457135307567
    vertex 0.08 1.1858780774685111 0.44
    vertex 0.02 1.1858780774685111 0.44
  endloop
endfacet
facet normal 0.0 -0.9659258262890694 0.2588190451025164
  outer loop
    vertex 0.08 1.1828810647933723 0.43276457135307567
    vertex 0.02 1.1818588395820444 0.425
    vertex 0.08 1.1818588395820444 0.425
  endloop
endfacet
facet normal 0.0 -1.0 0.0
  outer loop
    vertex 0.02 1.1818588395820444 0.425
    vertex 0.08 1.1828810647933723 0.43276457135307567
    vertex 0.02 1.1828810647933723 0.43276457135307567
  endloop
endfacet
facet normal 0.0 -1.0 0.0
  outer loop
    vertex 0.08 1.1818588395820444 0.425
    vertex 0.02 1.1828810647933723 0.4172354286469243
    vertex 0.08 1.1828810647933723 0.4172354286469243
  endloop
endfacet
facet normal 0.0 -0.9659258262890668 -0.2588190451025267
  outer loop
    vertex 0.02 1.1828810647933723 0.4172354286469243
    vertex 0.08 1.1818588395820444 0.425
    vertex 0.02 1.1818588395820444 0.425
  endloop
endfacet
facet normal 0.0 -0.9659258262890668 -0.2588190451025267
  outer loop
    vertex 0.08 1.1828810647933723 0.4172354286469243
    vertex 0.02 1.1858780774685114 0.41
    vertex 0.08 1.1858780774685114 0.41
  endloop
endfacet
facet normal 0.0 -0.8660254037844369 -0.5000000000000029
  outer loop
    vertex 0.02 1.1858780774685114 0.41
    vertex 0.08 1.1828810647933723 0.4172354286469243
    vertex 0.02 1.1828810647933723 0.4172354286469243
  endloop
endfacet
facet normal 0.0 -0.8660254037844369 -0.5000000000000029
  outer loop
    vertex 0.08 1.1858780774685114 0.41
    vertex 0.02 1.1906456361464481 0.4037867965644036
    vertex 0.08 1.1906456361464481 0.4037867965644036
  endloop
endfacet
facet normal 0.0 -0.7071067811865505 -0.7071067811865446
  outer loop
    vertex 0.02 1.1906456361464481 0.4037867965644036
    vertex 0.08 1.1858780774685114 0.41
    vertex 0.02 1.1858780774685114 0.41
  endloop
endfacet
facet normal 0.0 -0.5000000000000041 -0.8660254037844364
  outer loop
    vertex 0.08 1.1968588395820443 0.3990192378864668
    vertex 0.02 1.1906456361464481 0.4037867965644036
    vertex 0.02 1.1968588395820443 0.3990192378864668
  endloop
endfacet
facet normal 0.0 -0.7071067811865505 -0.7071067811865446
  outer loop
    vertex 0.02 1.1906456361464481 0.4037867965644036
    vertex 0.08 1.1968588395820443 0.3990192378864668
    vertex 0.08 1.1906456361464481 0.4037867965644036
  endloop
endfacet
facet normal 0.0 -0.25881904510252135 -0.9659258262890682
  outer loop
    vertex 0.08 1.2040942682289688 0.3960222252113279
    vertex 0.02 1.1968588395820443 0.3990192378864668
    vertex 0.02 1.2040942682289688 0.3960222252113279
  endloop
endfacet
facet normal 0.0 -0.5000000000000041 -0.8660254037844364
  outer loop
    vertex 0.02 1.1968588395820443 0.3990192378864668
    vertex 0.08 1.2040942682289688 0.3960222252113279
    vertex 0.08 1.1968588395820443 0.3990192378864668
  endloop
endfacet
facet normal 0.0 -0.1305261922200497 -0.9914448613738107
  outer loop
    vertex 0.08 1.2118588395820444 0.39499999999999996
    vertex 0.02 1.2040942682289688 0.3960222252113279
    vertex 0.02 1.2118588395820444 0.39499999999999996
  endloop
endfacet
facet normal 0.0 -0.25881904510252135 -0.9659258262890682
  outer loop
    vertex 0.02 1.2040942682289688 0.3960222252113279
    vertex 0.08 1.2118588395820444 0.39499999999999996
    vertex 0.08 1.2040942682289688 0.3960222252113279
  endloop
endfacet
facet normal 0.0 0.25881904510252135 -0.9659258262890682
  outer loop
    vertex 0.08 1.21962341093512 0.3960222252113279
    vertex 0.0 1.2118588395820444 0.39499999999999996
    vertex 0.0 1.21962341093512 0.3960222252113279
  endloop
endfacet
facet normal 0.0 0.1305261922200497 -0.9914448613738107
  outer loop
    vertex 0.0 1.2118588395820444 0.39499999999999996
    vertex 0.08 1.21962341093512 0.3960222252113279
    vertex 0.02 1.2118588395820444 0.39499999999999996
  endloop
endfacet
facet normal 0.0 0.1305261922200497 -0.9914448613738107
  outer loop
    vertex 0.02 1.2118588395820444 0.39499999999999996
    vertex 0.08 1.21962341093512 0.3960222252113279
    vertex 0.08 1.2118588395820444 0.39499999999999996
  endloop
endfacet
facet normal 0.0 0.5000000000000041 -0.8660254037844364
  outer loop
    vertex 0.08 1.2268588395820443 0.3990192378864668
    vertex 0.0 1.21962341093512 0.3960222252113279
    vertex 0.0 1.2268588395820443 0.3990192378864668
  endloop
endfacet
facet normal 0.0 0.25881904510252135 -0.9659258262890682
  outer loop
    vertex 0.0 1.21962341093512 0.3960222252113279
    vertex 0.08 1.2268588395820443 0.3990192378864668
    vertex 0.08 1.21962341093512 0.3960222252113279
  endloop
endfacet
facet normal 0.0 0.707106781186544 -0.7071067811865512
  outer loop
    vertex 0.08 1.2330720430176407 0.4037867965644036
    vertex 0.0 1.2268588395820443 0.3990192378864668
    vertex 0.0 1.2330720430176407 0.4037867965644036
  endloop
endfacet
facet normal 0.0 0.5000000000000041 -0.8660254037844364
  outer loop
    vertex 0.0 1.2268588395820443 0.3990192378864668
    vertex 0.08 1.2330720430176407 0.4037867965644036
    vertex 0.08 1.2268588395820443 0.3990192378864668
  endloop
endfacet
facet normal 0.0 0.8660254037844378 -0.5000000000000016
  outer loop
    vertex 0.0 1.2378396016955777 0.41
    vertex 0.08 1.2330720430176407 0.4037867965644036
    vertex 0.0 1.2330720430176407 0.4037867965644036
  endloop
endfacet
facet normal 0.0 0.707106781186544 -0.7071067811865512
  outer loop
    vertex 0.08 1.2330720430176407 0.4037867965644036
    vertex 0.0 1.2378396016955777 0.41
    vertex 0.08 1.2378396016955777 0.41
  endloop
endfacet
facet normal 0.0 0.9659258262890694 -0.2588190451025164
  outer loop
    vertex 0.0 1.2408366143707166 0.4172354286469243
    vertex 0.08 1.2378396016955777 0.41
    vertex 0.0 1.2378396016955777 0.41
  endloop
endfacet
facet normal 0.0 0.8660254037844378 -0.5000000000000016
  outer loop
    vertex 0.08 1.2378396016955777 0.41
    vertex 0.0 1.2408366143707166 0.4172354286469243
    vertex 0.08 1.2408366143707166 0.4172354286469243
  endloop
endfacet
facet normal 0.0 1.0 0.0
  outer loop
    vertex 0.0 1.2418588395820445 0.425
    vertex 0.08 1.2408366143707166 0.4172354286469243
    vertex 0.0 1.2408366143707166 0.4172354286469243
  endloop
endfacet
facet normal 0.0 0.9659258262890694 -0.2588190451025164
  outer loop
    vertex 0.08 1.2408366143707166 0.4172354286469243
    vertex 0.0 1.2418588395820445 0.425
    vertex 0.08 1.2418588395820445 0.425
  endloop
endfacet
facet normal 0.0 0.9659258262890668 0.2588190451025267
  outer loop
    vertex 0.0 1.2408366143707166 0.43276457135307567
    vertex 0.08 1.2418588395820445 0.425
    vertex 0.0 1.2418588395820445 0.425
  endloop
endfacet
facet normal 0.0 1.0 0.0
  outer loop
    vertex 0.08 1.2418588395820445 0.425
    vertex 0.0 1.2408366143707166 0.43276457135307567
    vertex 0.08 1.2408366143707166 0.43276457135307567
  endloop
endfacet
facet normal 0.0 0.8660254037844379 0.5000000000000014
  outer loop
    vertex 0.0 1.2378396016955775 0.44
    vertex 0.08 1.2408366143707166 0.43276457135307567
    vertex 0.0 1.2408366143707166 0.43276457135307567
  endloop
endfacet
facet normal 0.0 0.9659258262890668 0.2588190451025267
  outer loop
    vertex 0.08 1.2408366143707166 0.43276457135307567
    vertex 0.0 1.2378396016955775 0.44
    vertex 0.08 1.2378396016955775 0.44
  endloop
endfacet
facet normal 0.0 0.70710678118655 0.7071067811865451
  outer loop
    vertex 0.0 1.2330720430176407 0.44621320343559645
    vertex 0.08 1.2378396016955775 0.44
    vertex 0.0 1.2378396016955775 0.44
  endloop
endfacet
facet normal 0.0 0.8660254037844379 0.5000000000000014
  outer loop
    vertex 0.08 1.2378396016955775 0.44
    vertex 0.0 1.2330720430176407 0.44621320343559645
    vertex 0.08 1.2330720430176407 0.44621320343559645
  endloop
endfacet
facet normal 0.0 0.4999999999999997 0.8660254037844387
  outer loop
    vertex 0.08 1.2268588395820443 0.45098076211353316
    vertex 0.0 1.2330720430176407 0.44621320343559645
    vertex 0.0 1.2268588395820443 0.45098076211353316
  endloop
endfacet
facet normal 0.0 0.70710678118655 0.7071067811865451
  outer loop
    vertex 0.0 1.2330720430176407 0.44621320343559645
    vertex 0.08 1.2268588395820443 0.45098076211353316
    vertex 0.08 1.2330720430176407 0.44621320343559645
  endloop
endfacet
facet normal 0.0 0.2588190451025215 0.9659258262890681
  outer loop
    vertex 0.08 1.21962341093512 0.453977774788672
    vertex 0.0 1.2268588395820443 0.45098076211353316
    vertex 0.0 1.21962341093512 0.453977774788672
  endloop
endfacet
facet normal 0.0 0.4999999999999997 0.8660254037844387
  outer loop
    vertex 0.0 1.2268588395820443 0.45098076211353316
    vertex 0.08 1.21962341093512 0.453977774788672
    vertex 0.08 1.2268588395820443 0.45098076211353316
  endloop
endfacet
facet normal 0.0 -0.2588190451025215 0.9659258262890681
  outer loop
    vertex 0.08 1.2040942682289688 0.453977774788672
    vertex 0.02 1.2118588395820444 0.455
    vertex 0.02 1.2040942682289688 0.453977774788672
  endloop
endfacet
facet normal -0.0 -0.13052619222005535 0.9914448613738098
  outer loop
    vertex 0.02 1.2118588395820444 0.455
    vertex 0.08 1.2040942682289688 0.453977774788672
    vertex 0.08 1.2118588395820444 0.455
  endloop
endfacet
facet normal -0.0 0.13052619222005535 0.9914448613738098
  outer loop
    vertex 0.02 1.2118588395820444 0.455
    vertex 0.0 1.21962341093512 0.453977774788672
    vertex 0.0 1.2118588395820444 0.455
  endloop
endfacet
facet normal 0.0 0.2588190451025215 0.9659258262890681
  outer loop
    vertex 0.0 1.21962341093512 0.453977774788672
    vertex 0.02 1.2118588395820444 0.455
    vertex 0.08 1.21962341093512 0.453977774788672
  endloop
endfacet
facet normal 0.0 0.2588190451025215 0.9659258262890681
  outer loop
    vertex 0.08 1.21962341093512 0.453977774788672
    vertex 0.02 1.2118588395820444 0.455
    vertex 0.08 1.2118588395820444 0.455
  endloop
endfacet
facet normal 1.0 0.0 0.0
  outer loop
    vertex 0.02 1.1788799339402454 0.03297890564180115
    vertex 0.02 1.1818588395820444 0.425
    vertex 0.02 1.1788799339402454 0.85
  endloop
endfacet
facet normal 1.0 0.0 0.0
  outer loop
    vertex 0.02 1.1818588395820444 0.425
    vertex 0.02 1.1788799339402454 0.03297890564180115
    vertex 0.02 1.2118588395820444 0.03297890564180115
  endloop
endfacet
facet normal 1.0 0.0 0.0
  outer loop
    vertex 0.02 1.1818588395820444 0.425
    vertex 0.02 1.2118588395820444 0.03297890564180115
    vertex 0.02 1.1828810647933723 0.4172354286469243
  endloop
endfacet
facet normal 1.0 0.0 0.0
  outer loop
    vertex 0.02 1.1828810647933723 0.4172354286469243
    vertex 0.02 1.2118588395820444 0.03297890564180115
    vertex 0.02 1.1858780774685114 0.41
  endloop
endfacet
facet normal 1.0 0.0 0.0
  outer loop
    vertex 0.02 1.1858780774685114 0.41
    vertex 0.02 1.2118588395820444 0.03297890564180115
    vertex 0.02 1.1906456361464481 0.4037867965644036
  endloop
endfacet
facet normal 1.0 0.0 0.0
  outer loop
    vertex 0.02 1.1906456361464481 0.4037867965644036
    vertex 0.02 1.2118588395820444 0.03297890564180115
    vertex 0.02 1.1968588395820443 0.3990192378864668
  endloop
endfacet
facet normal 1.0 0.0 0.0
  outer loop
    vertex 0.02 1.1968588395820443 0.3990192378864668
    vertex 0.02 1.2118588395820444 0.03297890564180115
    vertex 0.02 1.2040942682289688 0.3960222252113279
  endloop
endfacet
facet normal 1.0 0.0 0.0
  outer loop
    vertex 0.02 1.2040942682289688 0.3960222252113279
    vertex 0.02 1.2118588395820444 0.03297890564180115
    vertex 0.02 1.2118588395820444 0.39499999999999996
  endloop
endfacet
facet normal 1.0 0.0 0.0
  outer loop
    vertex 0.02 1.7188799339402454 0.03297890564180115
    vertex 0.02 1.6859010282984428 0.8170210943581988
    vertex 0.02 1.6859010282984428 0.03297890564180115
  endloop
endfacet
facet normal 1.0 0.0 0.0
  outer loop
    vertex 0.02 1.1788799339402454 0.85
    vertex 0.02 1.2118588395820444 0.8170210943581988
    vertex 0.02 1.7188799339402454 0.85
  endloop
endfacet
facet normal 1.0 0.0 0.0
  outer loop
    vertex 0.02 1.2118588395820444 0.8170210943581988
    vertex 0.02 1.1788799339402454 0.85
    vertex 0.02 1.1818588395820444 0.425
  endloop
endfacet
facet normal 1.0 0.0 0.0
  outer loop
    vertex 0.02 1.2118588395820444 0.8170210943581988
    vertex 0.02 1.1818588395820444 0.425
    vertex 0.02 1.1828810647933723 0.43276457135307567
  endloop
endfacet
facet normal 1.0 0.0 0.0
  outer loop
    vertex 0.02 1.2118588395820444 0.8170210943581988
    vertex 0.02 1.1828810647933723 0.43276457135307567
    vertex 0.02 1.1858780774685111 0.44
  endloop
endfacet
facet normal 1.0 0.0 0.0
  outer loop
    vertex 0.02 1.2118588395820444 0.8170210943581988
    vertex 0.02 1.1858780774685111 0.44
    vertex 0.02 1.1906456361464481 0.44621320343559645
  endloop
endfacet
facet normal 1.0 0.0 0.0
  outer loop
    vertex 0.02 1.2118588395820444 0.8170210943581988
    vertex 0.02 1.1906456361464481 0.44621320343559645
    vertex 0.02 1.1968588395820443 0.45098076211353316
  endloop
endfacet
facet normal 1.0 0.0 0.0
  outer loop
    vertex 0.02 1.2118588395820444 0.8170210943581988
    vertex 0.02 1.1968588395820443 0.45098076211353316
    vertex 0.02 1.2040942682289688 0.453977774788672
  endloop
endfacet
facet normal 1.0 0.0 0.0
  outer loop
    vertex 0.02 1.2118588395820444 0.8170210943581988
    vertex 0.02 1.2040942682289688 0.453977774788672
    vertex 0.02 1.2118588395820444 0.455
  endloop
endfacet
facet normal 1.0 0.0 0.0
  outer loop
    vertex 0.02 1.7188799339402454 0.85
    vertex 0.02 1.2118588395820444 0.8170210943581988
    vertex 0.02 1.6859010282984428 0.8170210943581988
  endloop
endfacet
facet normal 1.0 0.0 0.0
  outer loop
    vertex 0.02 1.7188799339402454 0.85
    vertex 0.02 1.6859010282984428 0.8170210943581988
    vertex 0.02 1.7188799339402454 0.03297890564180115
  endloop
endfacet
facet normal 0.0 1.0 -0.0
  outer loop
    vertex 0.0 1.2118588395820444 0.39499999999999996
    vertex 0.02 1.2118588395820444 0.03297890564180115
    vertex 0.0 1.2118588395820444 0.03297890564180115
  endloop
endfacet
facet normal 0.0 1.0 -0.0
  outer loop
    vertex 0.02 1.2118588395820444 0.03297890564180115
    vertex 0.0 1.2118588395820444 0.39499999999999996
    vertex 0.02 1.2118588395820444 0.39499999999999996
  endloop
endfacet
facet normal 0.0 1.0 -0.0
  outer loop
    vertex 0.0 1.2118588395820444 0.8170210943581988
    vertex 0.02 1.2118588395820444 0.455
    vertex 0.0 1.2118588395820444 0.455
  endloop
endfacet
facet normal 0.0 1.0 -0.0
  outer loop
    vertex 0.02 1.2118588395820444 0.455
    vertex 0.0 1.2118588395820444 0.8170210943581988
    vertex 0.02 1.2118588395820444 0.8170210943581988
  endloop
endfacet
facet normal 0.0 0.0 -1.0
  outer loop
    vertex 0.02 1.6859010282984428 0.8170210943581988
    vertex 0.0 1.2118588395820444 0.8170210943581988
    vertex 0.0 1.6859010282984428 0.8170210943581988
  endloop
endfacet
facet normal 0.0 0.0 -1.0
  outer loop
    vertex 0.0 1.2118588395820444 0.8170210943581988
    vertex 0.02 1.6859010282984428 0.8170210943581988
    vertex 0.02 1.2118588395820444 0.8170210943581988
  endloop
endfacet
facet normal -0.0 -1.0 -0.0
  outer loop
    vertex 0.02 1.6859010282984428 0.8170210943581988
    vertex 0.0 1.6859010282984428 0.03297890564180115
    vertex 0.02 1.6859010282984428 0.03297890564180115
  endloop
endfacet
facet normal -0.0 -1.0 -0.0
  outer loop
    vertex 0.0 1.6859010282984428 0.03297890564180115
    vertex 0.02 1.6859010282984428 0.8170210943581988
    vertex 0.0 1.6859010282984428 0.8170210943581988
  endloop
endfacet
facet normal 0.0 -1.0 0.0
  outer loop
    vertex 0.22999999999999968 0.8619511988281873 1.0947517150326325
    vertex -0.08355441438718175 0.8619511988281873 0.4347517150326326
    vertex 0.22999999999999968 0.8619511988281873 0.4347517150326326
  endloop
endfacet
facet normal 0.0 -1.0 0.0
  outer loop
    vertex -0.08355441438718175 0.8619511988281873 0.4347517150326326
    vertex 0.22999999999999968 0.8619511988281873 1.0947517150326325
    vertex -0.08355441438718175 0.8619511988281873 1.0947517150326325
  endloop
endfacet
facet normal 0.0 0.0 -1.0
  outer loop
    vertex 0.22999999999999968 0.8619511988281873 1.0947517150326325
    vertex -0.08355441438718175 0.20195119882818735 1.0947517150326325
    vertex -0.08355441438718175 0.8619511988281873 1.0947517150326325
  endloop
endfacet
facet normal 0.0 0.0 -1.0
  outer loop
    vertex -0.08355441438718175 0.20195119882818735 1.0947517150326325
    vertex 0.22999999999999968 0.8619511988281873 1.0947517150326325
    vertex 0.22999999999999968 0.20195119882818735 1.0947517150326325
  endloop
endfacet
facet normal -0.0 1.0 -0.0
  outer loop
    vertex -0.08355441438718175 0.20195119882818735 1.0947517150326325
    vertex 0.22999999999999968 0.20195119882818735 0.4347517150326326
    vertex -0.08355441438718175 0.20195119882818735 0.4347517150326326
  endloop
endfacet
facet normal -0.0 1.0 -0.0
  outer loop
    vertex 0.22999999999999968 0.20195119882818735 0.4347517150326326
    vertex -0.08355441438718175 0.20195119882818735 1.0947517150326325
    vertex 0.22999999999999968 0.20195119882818735 1.0947517150326325
  endloop
endfacet
facet normal -0.0 -0.0 1.0
  outer loop
    vertex 0.22999999999999968 0.20195119882818735 0.4347517150326326
    vertex -0.08355441438718175 0.8619511988281873 0.4347517150326326
    vertex -0.08355441438718175 0.20195119882818735 0.4347517150326326
  endloop
endfacet
facet normal -0.0 -0.0 1.0
  outer loop
    vertex -0.08355441438718175 0.8619511988281873 0.4347517150326326
    vertex 0.22999999999999968 0.20195119882818735 0.4347517150326326
    vertex 0.22999999999999968 0.8619511988281873 0.4347517150326326
  endloop
endfacet
facet normal -0.0 0.9999999999999999 -0.0
  outer loop
    vertex -2.693373468445103 0.08355441438718175 1.76
    vertex -0.08355441438718175 0.08355441438718175 0.1200000000000025
    vertex -2.693373468445103 0.08355441438718175 0.1200000000000025
  endloop
endfacet
facet normal -0.0 0.9999999999999999 -0.0
  outer loop
    vertex -0.08355441438718175 0.08355441438718175 0.1200000000000025
    vertex -2.693373468445103 0.08355441438718175 1.76
    vertex -0.08355441438718175 0.08355441438718175 1.76
  endloop
endfacet
facet normal 0.0 0.0 1.0
  outer loop
    vertex -0.08355441438718175 0.08355441438718175 0.1200000000000025
    vertex -2.693373468445103 3.1265731859999577 0.1200000000000025
    vertex -2.693373468445103 0.08355441438718175 0.1200000000000025
  endloop
endfacet
facet normal 0.0 0.0 1.0
  outer loop
    vertex -2.693373468445103 3.1265731859999577 0.1200000000000025
    vertex -0.08355441438718175 0.08355441438718175 0.1200000000000025
    vertex -0.08355441438718175 3.1265731859999577 0.1200000000000025
  endloop
endfacet
facet normal 1.0 0.0 0.0
  outer loop
    vertex -2.693373468445103 3.1265731859999577 0.1200000000000025
    vertex -2.693373468445103 0.08355441438718175 1.76
    vertex -2.693373468445103 0.08355441438718175 0.1200000000000025
  endloop
endfacet
facet normal 1.0 0.0 0.0
  outer loop
    vertex -2.693373468445103 0.08355441438718175 1.76
    vertex -2.693373468445103 3.1265731859999577 0.1200000000000025
    vertex -2.693373468445103 3.1265731859999577 1.76
  endloop
endfacet
facet normal -0.0 1.0 -0.0
  outer loop
    vertex -0.08355441438718139 2.0789708381667698 1.0899142568333597
    vertex 0.22999999999999968 2.0789708381667698 0.4347517150326326
    vertex -0.08355441438718139 2.0789708381667698 0.4347517150326326
  endloop
endfacet
facet normal -0.0 1.0 -0.0
  outer loop
    vertex 0.22999999999999968 2.0789708381667698 0.4347517150326326
    vertex -0.08355441438718139 2.0789708381667698 1.0899142568333597
    vertex 0.22999999999999968 2.0789708381667698 1.0899142568333597
  endloop
endfacet
facet normal 0.0 0.0 -1.0
  outer loop
    vertex 0.22999999999999968 3.02563816682394 1.0899142568333597
    vertex -0.08355441438718139 2.0789708381667698 1.0899142568333597
    vertex -0.08355441438718139 3.02563816682394 1.0899142568333597
  endloop
endfacet
facet normal 0.0 0.0 -1.0
  outer loop
    vertex -0.08355441438718139 2.0789708381667698 1.0899142568333597
    vertex 0.22999999999999968 3.02563816682394 1.0899142568333597
    vertex 0.22999999999999968 2.0789708381667698 1.0899142568333597
  endloop
endfacet
facet normal -8.347970513157449e-17 2.299893485241315e-17 1.0
  outer loop
    vertex 0.22999999999999968 2.0789708381667698 0.4347517150326326
    vertex -0.08355441438718139 3.02563816682394 0.4347517150326326
    vertex -0.08355441438718139 2.0789708381667698 0.4347517150326326
  endloop
endfacet
facet normal -8.347970513157449e-17 2.299893485241315e-17 1.0
  outer loop
    vertex -0.08355441438718139 3.02563816682394 0.4347517150326326
    vertex 0.22999999999999968 2.0789708381667698 0.4347517150326326
    vertex 0.22999999999999968 3.02563816682394 0.4347517150326326
  endloop
endfacet
facet normal 0.0 -1.0 0.0
  outer loop
    vertex 0.22999999999999968 3.02563816682394 1.0899142568333597
    vertex -0.08355441438718139 3.02563816682394 0.4347517150326326
    vertex 0.22999999999999968 3.02563816682394 0.4347517150326326
  endloop
endfacet
facet normal 0.0 -1.0 0.0
  outer loop
    vertex -0.08355441438718139 3.02563816682394 0.4347517150326326
    vertex 0.22999999999999968 3.02563816682394 1.0899142568333597
    vertex -0.08355441438718139 3.02563816682394 1.0899142568333597
  endloop
endfacet
facet normal -1.0 6.209460655627156e-15 2.3921664607691073e-33
  outer loop
    vertex -0.08355441438718157 3.1265731859999577 1.0899142568333597
    vertex -0.08355441438718139 3.02563816682394 0.4347517150326326
    vertex -0.08355441438718139 3.02563816682394 1.0899142568333597
  endloop
endfacet
facet normal -1.0 6.209460655627156e-15 2.3921664607691073e-33
  outer loop
    vertex -0.08355441438718139 3.02563816682394 0.4347517150326326
    vertex -0.08355441438718157 3.1265731859999577 1.0899142568333597
    vertex -0.08355441438718157 3.1265731859999577 0.4347517150326325
  endloop
endfacet
facet normal -1.0 2.7655556637023626e-17 -2.7149995245421514e-17
  outer loop
    vertex -0.08355441438718175 0.08355441438718175 1.76
    vertex -0.08355441438718175 0.20195119882818735 1.0947517150326325
    vertex -0.08355441438718175 0.08355441438718175 0.1200000000000025
  endloop
endfacet
facet normal -1.0 2.7655556637023626e-17 -2.7149995245421514e-17
  outer loop
    vertex -0.08355441438718175 0.20195119882818735 1.0947517150326325
    vertex -0.08355441438718175 0.08355441438718175 1.76
    vertex -0.08355441438718175 3.1265731859999577 1.76
  endloop
endfacet
facet normal -1.0 2.7655556637023626e-17 -2.7149995245421514e-17
  outer loop
    vertex -0.08355441438718175 0.20195119882818735 1.0947517150326325
    vertex -0.08355441438718175 3.1265731859999577 1.76
    vertex -0.08355441438718175 0.8619511988281873 1.0947517150326325
  endloop
endfacet
facet normal -1.0 2.7655556637023626e-17 -2.7149995245421514e-17
  outer loop
    vertex -0.08355441438718175 0.8619511988281873 1.0947517150326325
    vertex -0.08355441438718175 3.1265731859999577 1.76
    vertex -0.08355441438718175 0.8619511988281873 0.4347517150326326
  endloop
endfacet
facet normal -1.0 2.7655556637023626e-17 -2.7149995245421514e-17
  outer loop
    vertex -0.08355441438718175 0.8619511988281873 0.4347517150326326
    vertex -0.08355441438718175 3.1265731859999577 1.76
    vertex -0.08355441438718139 2.0789708381667698 1.0899142568333597
  endloop
endfacet
facet normal -1.0 2.7655556637023626e-17 -2.7149995245421514e-17
  outer loop
    vertex -0.08355441438718139 2.0789708381667698 1.0899142568333597
    vertex -0.08355441438718175 3.1265731859999577 1.76
    vertex -0.08355441438718139 3.02563816682394 1.0899142568333597
  endloop
endfacet
facet normal -1.0 2.7655556637023626e-17 -2.7149995245421514e-17
  outer loop
    vertex -0.08355441438718139 3.02563816682394 1.0899142568333597
    vertex -0.08355441438718175 3.1265731859999577 1.76
    vertex -0.08355441438718157 3.1265731859999577 1.0899142568333597
  endloop
endfacet
facet normal -1.0 2.7655556637023626e-17 -2.7149995245421514e-17
  outer loop
    vertex -0.08355441438718175 0.08355441438718175 0.1200000000000025
    vertex -0.08355441438718175 0.20195119882818735 0.4347517150326326
    vertex -0.08355441438718175 3.1265731859999577 0.1200000000000025
  endloop
endfacet
facet normal -1.0 2.7655556637023626e-17 -2.7149995245421514e-17
  outer loop
    vertex -0.08355441438718175 0.20195119882818735 0.4347517150326326
    vertex -0.08355441438718175 0.08355441438718175 0.1200000000000025
    vertex -0.08355441438718175 0.20195119882818735 1.0947517150326325
  endloop
endfacet
facet normal -1.0 2.7655556637023626e-17 -2.7149995245421514e-17
  outer loop
    vertex -0.08355441438718175 3.1265731859999577 0.1200000000000025
    vertex -0.08355441438718175 0.20195119882818735 0.4347517150326326
    vertex -0.08355441438718175 0.8619511988281873 0.4347517150326326
  endloop
endfacet
facet normal -1.0 2.7655556637023626e-17 -2.7149995245421514e-17
  outer loop
    vertex -0.08355441438718175 3.1265731859999577 0.1200000000000025
    vertex -0.08355441438718175 0.8619511988281873 0.4347517150326326
    vertex -0.08355441438718139 2.0789708381667698 0.4347517150326326
  endloop
endfacet
facet normal -1.0 2.7655556637023626e-17 -2.7149995245421514e-17
  outer loop
    vertex -0.08355441438718139 2.0789708381667698 0.4347517150326326
    vertex -0.08355441438718175 0.8619511988281873 0.4347517150326326
    vertex -0.08355441438718139 2.0789708381667698 1.0899142568333597
  endloop
endfacet
facet normal -1.0 2.7655556637023626e-17 -2.7149995245421514e-17
  outer loop
    vertex -0.08355441438718175 3.1265731859999577 0.1200000000000025
    vertex -0.08355441438718139 2.0789708381667698 0.4347517150326326
    vertex -0.08355441438718139 3.02563816682394 0.4347517150326326
  endloop
endfacet
facet normal -1.0 2.7655556637023626e-17 -2.7149995245421514e-17
  outer loop
    vertex -0.08355441438718175 3.1265731859999577 0.1200000000000025
    vertex -0.08355441438718139 3.02563816682394 0.4347517150326326
    vertex -0.08355441438718157 3.1265731859999577 0.4347517150326325
  endloop
endfacet
endsolid Untitled-54eb6fb5
